<?xml version="1.0" encoding="UTF-8"?>
<svg width="200px" height="240px" viewBox="0 0 200 240" version="1.1" xmlns="http://www.w3.org/2000/svg"
  xmlns:xlink="http://www.w3.org/1999/xlink" id="eggsvg" class="eggsvg">
  <defs>
    <path
      d="M60,0 L60,0 L60,-1.42108547e-14 C93.137085,-2.02980385e-14 120,26.862915 120,60 L120,149 L0,149 L0,60 L0,60 C-4.05812251e-15,26.862915 26.862915,6.08718376e-15 60,0 Z"
      id="path-1"></path>
    <path
      d="M15.5541748,21.9318557 C21.0770223,21.9318557 25.5541748,17.4547032 25.5541748,11.9318557 C25.5541748,6.40900816 21.0770223,1.93185566 15.5541748,1.93185566 C11.8722765,1.93185566 7.20560981,5.265189 1.55417481,11.9318557 C7.20560981,18.5985223 11.8722765,21.9318557 15.5541748,21.9318557 Z"
      id="path-3"></path>
    <path
      d="M15.5541748,21.9318557 C21.0770223,21.9318557 25.5541748,17.4547032 25.5541748,11.9318557 C25.5541748,6.40900816 21.0770223,1.93185566 15.5541748,1.93185566 C11.8722765,1.93185566 7.20560981,5.265189 1.55417481,11.9318557 C7.20560981,18.5985223 11.8722765,21.9318557 15.5541748,21.9318557 Z"
      id="path-5"></path>
    <polygon id="path-7"
      points="0.84833866 129.814433 10.8317441 122.204014 21.4153298 125.05071 44.0224901 110.424506 67 119.384873 90.1922136 103 104.932829 126.681536 121.114617 113.719006 144.555978 119.840768 176.640144 114.574736 196.895396 129.814433 212.987106 126.681536 212.987106 248.149059 5.16529475 248.149059">
    </polygon>
    <polygon id="path-9"
      points="0.84833866 140.814433 10.8317441 133.204014 21.4153298 136.05071 44.0224901 121.424506 67 130.384873 90.1922136 114 104.932829 137.681536 121.114617 124.719006 144.555978 130.840768 176.640144 125.574736 196.895396 140.814433 212.987106 137.681536 212.987106 0.0995080672 1.7846937 0.0995080672">
    </polygon>
    <rect id="path-11" y="0" height="34"></rect>
  </defs>
  <pattern id="pattern-chevron" x="0" y="0" patternUnits="userSpaceOnUse" width="100" height="180" viewBox="0 0 10 18">
    <rect x="0" y="0" width="100" height="180" fill="var(--lightHighlight)" />
    <g id="chevron">
      <path class="left" d="M0 0l5 3v5l-5 -3z" fill="var(--lightText)"></path>
      <path class="right" d="M10 0l-5 3v5l5 -3" fill="var(--lightText)"></path>
    </g>
    <use x="0" y="9" xlink:href="#chevron"></use>
  </pattern>
  <g id="Page-1" stroke="none" stroke-width="1" fill="none" fill-rule="evenodd">
    <g id="Artboard" transform="translate(-276.000000, -116.000000)">
      <g id="cracking-egg" transform="translate(270.000000, 105.000000)">
        <g id="chick" class="chick" transform="translate(47.000000, 46.000000)">
          <mask id="mask-2" fill="var(--lightText)">
            <use xlink:href="#path-1"></use>
          </mask>
          <use id="face" fill="var(--lightBg)" xlink:href="#path-1"></use>
          <g id="eye-left" mask="url(#mask-2)">
            <g transform="translate(23.000000, 24.000000)">
              <mask id="mask-4" fill="var(--lightText)">
                <use xlink:href="#path-3"></use>
              </mask>
              <use id="eyewhite-left" stroke="none" fill="var(--lightText)" fill-rule="evenodd"
                transform="translate(13.554175, 11.931856) rotate(-10.000000) translate(-13.554175, -11.931856) "
                xlink:href="#path-3"></use>
              <circle id="eyeball-left" stroke="none" fill="var(--lightHighlight)" fill-rule="evenodd"
                mask="url(#mask-4)" cx="16" cy="12" r="5"></circle>
            </g>
          </g>
          <path
            d="M60.5,74.0208153 C65.1944204,74.0208153 69,70.2152357 69,65.5208153 C69,60.8263949 52,60.8263949 52,65.5208153 C52,70.2152357 55.8055796,74.0208153 60.5,74.0208153 Z"
            id="mouth" class="mouth" fill="var(--darkBg)" mask="url(#mask-2)"></path>
          <g id="eye-right" mask="url(#mask-2)">
            <g transform="translate(71.000000, 24.000000)">
              <mask id="mask-6" fill="var(--lightText)">
                <use xlink:href="#path-5"></use>
              </mask>
              <use id="eyewhite-right" stroke="none" fill="var(--lightText)" fill-rule="evenodd"
                transform="translate(13.554175, 11.931856) scale(-1, 1) rotate(-10.000000) translate(-13.554175, -11.931856) "
                xlink:href="#path-5"></use>
              <circle id="eyeball-right" stroke="none" fill="var(--lightHighlight)" fill-rule="evenodd"
                mask="url(#mask-6)" cx="12" cy="12" r="5"></circle>
            </g>
          </g>
        </g>
        <g id="egg-lower" transform="translate(0.000000, 11.000000)">
          <mask id="mask-8" fill="var(--lightText)">
            <use xlink:href="#path-7"></use>
          </mask>
          <g id="crack-bottom"></g>
          <path
            d="M106,240 C161.228475,240 206,195.228475 206,140 C206,84.771525 161.228475,0 106,0 C50.771525,0 6,84.771525 6,140 C6,195.228475 50.771525,240 106,240 Z"
            id="egg2" fill="url(#pattern-chevron)" mask="url(#mask-8)"></path>
        </g>
        <g id="egg-upper" class="egg-upper">
          <mask id="mask-10" fill="var(--lightText)">
            <use xlink:href="#path-9"></use>
          </mask>
          <g id="crack-upper"></g>
          <path
            d="M106,251 C161.228475,251 206,206.228475 206,151 C206,95.771525 161.228475,11 106,11 C50.771525,11 6,95.771525 6,151 C6,206.228475 50.771525,251 106,251 Z"
            id="egg1" fill="url(#pattern-chevron)" mask="url(#mask-10)"></path>
        </g>
        <g id="crack" transform="translate(75.000000, 109.000000)">
          <mask id="mask-12" fill="var(--lightText)">
            <use xlink:href="#path-11"></use>
          </mask>
          <g id="crack-mask"></g>
          <polyline id="crack-full" stroke="var(--darkBg)" stroke-width="3" stroke-linecap="round"
            stroke-linejoin="round" mask="url(#mask-12)"
            points="-74.1516613 31.8144335 -64.1682559 24.2040144 -53.5846702 27.0507105 -30.9775099 12.4245057 -8 21.3848725 15.1922136 5 29.9328292 28.6815357 46.1146168 15.7190065 69.555978 21.8407678 101.640144 16.5747357 121.895396 31.8144335 137.987106 28.6815357">
          </polyline>
        </g>
      </g>
    </g>
  </g>
  <!-- Taken fron https://codepen.io/yaluye/pen/ZXqvdP -->
</svg>